<svg xmlns="http://www.w3.org/2000/svg" width="800" height="600" viewBox="0 0 800 600">
  <defs>
    <linearGradient id="bg" x1="0%" y1="0%" x2="100%" y2="100%">
      <stop offset="0%" style="stop-color:#fed7aa"/>
      <stop offset="100%" style="stop-color:#fdba74"/>
    </linearGradient>
  </defs>
  <rect width="800" height="600" fill="url(#bg)"/>
  <!-- Mountains -->
  <polygon points="0,450 200,250 400,400 600,200 800,350 800,600 0,600" fill="#fb923c" opacity="0.3"/>
  <polygon points="0,500 150,350 350,450 550,300 800,420 800,600 0,600" fill="#f97316" opacity="0.25"/>
  <!-- Sun -->
  <circle cx="650" cy="150" r="60" fill="#fff" opacity="0.6"/>
  <!-- Pin icon -->
  <g transform="translate(355, 220)" fill="#ea580c" opacity="0.5">
    <path d="M45 0C20.1 0 0 20.1 0 45c0 33.8 45 75 45 75s45-41.2 45-75C90 20.1 69.9 0 45 0zm0 61.2c-8.9 0-16.2-7.3-16.2-16.2S36.1 28.8 45 28.8 61.2 36.1 61.2 45 53.9 61.2 45 61.2z"/>
  </g>
  <!-- Text -->
  <text x="400" y="520" text-anchor="middle" font-family="system-ui, sans-serif" font-size="24" font-weight="600" fill="#9a3412" opacity="0.5">Destination</text>
</svg>
